<svg xmlns="http://www.w3.org/2000/svg" version="1.1" xmlns:xlink="http://www.w3.org/1999/xlink" width="512" height="512" x="0" y="0" viewBox="0 0 6.827 6.827" style="enable-background:new 0 0 512 512" xml:space="preserve" fill-rule="evenodd" class=""><g><path d="M2.548.49a.93.93 0 0 0 0 1.858.93.93 0 0 0 0-1.858zM2.083 2.817c-.8.188-1.378.914-1.378 1.736v1.784h3.203a1.684 1.684 0 0 1-1.01-1.542c0-.667.39-1.244.954-1.516a1.775 1.775 0 0 0-.84-.462 1.073 1.073 0 0 1-.93 0z" fill="#000000" opacity="1" data-original="#000000"></path><path d="M5.657 4.231a1.35 1.35 0 0 1-1.077.532 1.35 1.35 0 0 1-1.076-.532c-.089.168-.139.36-.14.562a.945.945 0 0 1 .888 1.173 1.211 1.211 0 0 0 .657 0 .945.945 0 0 1 .887-1.173c0-.202-.05-.394-.14-.562zm-1.077.636a.233.233 0 1 1 0 .467.233.233 0 0 1 0-.467z" fill="#000000" opacity="1" data-original="#000000"></path><path d="M4.58 5.007a.093.093 0 1 0 0 .186.093.093 0 0 0 0-.186z" fill="#000000" opacity="1" data-original="#000000"></path><path d="M5.936 4.795a1.358 1.358 0 0 1-.918 1.284l-.004.001a1.35 1.35 0 0 1-.867 0l-.004-.001a1.359 1.359 0 0 1-.917-1.21v-.002a1.348 1.348 0 0 1 .218-.812 1.356 1.356 0 0 1 2.492.74zM4.58 3.254c-.85 0-1.541.691-1.541 1.541S3.73 6.337 4.58 6.337s1.542-.692 1.542-1.542c0-.85-.692-1.541-1.542-1.541z" fill="#000000" opacity="1" data-original="#000000"></path></g></svg>