<svg xmlns="http://www.w3.org/2000/svg" version="1.1" xmlns:xlink="http://www.w3.org/1999/xlink" width="512" height="512" x="0" y="0" viewBox="0 0 64 64" style="enable-background:new 0 0 512 512" xml:space="preserve" class=""><g><path d="M57 6.024H7a3.009 3.009 0 0 0-3 3v5h23.06a3.002 3.002 0 0 0 1.34-.32l6.31-3.15a4.945 4.945 0 0 1 2.23-.53H60v-1a3.009 3.009 0 0 0-3-3zm-47.98 6a1 1 0 0 1 0-2 1 1 0 0 1 0 2zm4 0a1 1 0 0 1 0-2 1 1 0 0 1 0 2zm4 0a1 1 0 0 1 0-2 1 1 0 0 1 0 2zM32 32.024c-10.12-.138-16.517 11.588-10.95 20 4.882 7.936 17.02 7.936 21.9 0 5.566-8.411-.828-20.14-10.95-20zm6.24 10.43-7.9 6.67a1.012 1.012 0 0 1-1.36-.07l-3.3-3.38a1 1 0 0 1 1.44-1.39l2.64 2.71 7.2-6.07a.998.998 0 0 1 1.28 1.53z" fill="#000000" opacity="1" data-original="#000000" class=""></path><path d="m35.6 12.344-6.31 3.15a4.945 4.945 0 0 1-2.23.53H4v33a3.009 3.009 0 0 0 3 3h11.73c-5.325-9.717 2.182-22.181 13.27-22 11.084-.187 18.6 12.296 13.27 22H57a3.009 3.009 0 0 0 3-3v-37H36.94a3.002 3.002 0 0 0-1.34.32z" fill="#000000" opacity="1" data-original="#000000" class=""></path></g></svg>