<svg xmlns="http://www.w3.org/2000/svg" version="1.1" xmlns:xlink="http://www.w3.org/1999/xlink" width="512" height="512" x="0" y="0" viewBox="0 0 511.957 511.957" style="enable-background:new 0 0 512 512" xml:space="preserve" class=""><g><path d="M281.578 273.023a8.533 8.533 0 0 0-8.533-8.533h-34.133c-4.713 0-8.533 3.82-8.533 8.533s3.82 8.533 8.533 8.533h34.133a8.532 8.532 0 0 0 8.533-8.533zM221.845 187.69h-17.067a8.533 8.533 0 0 0 0 17.066 8.533 8.533 0 0 0 17.066 0 8.533 8.533 0 0 0 8.533-8.533 8.531 8.531 0 0 0-8.532-8.533zM307.178 187.69h-17.067a8.533 8.533 0 0 0 0 17.066 8.533 8.533 0 0 0 17.066 0 8.533 8.533 0 0 0 8.533-8.533 8.53 8.53 0 0 0-8.532-8.533zM247.445 247.423h17.067a8.533 8.533 0 0 0 0-17.066h-17.067a8.533 8.533 0 0 0 0 17.066zM230.378 179.157a8.533 8.533 0 0 0 0-17.066h-34.133a8.533 8.533 0 0 0 0 17.066zM281.578 179.157h34.133c4.713 0 8.533-3.82 8.533-8.533s-3.82-8.533-8.533-8.533h-34.133a8.533 8.533 0 0 0 0 17.066z" fill="#000000" opacity="1" data-original="#000000" class=""></path><path d="M93.845 511.957h324.267c18.851 0 34.133-15.282 34.133-34.133v-25.6a25.65 25.65 0 0 0-17.067-24.141V398.95a33.112 33.112 0 0 0-8.832-22.699c-1.748-20.487-16.442-37.542-36.446-42.3l-41.685-10.419a147.21 147.21 0 0 0-24.414-16.375l19.968-17.434a42.735 42.735 0 0 0 14.609-32.23V246.57c23.039-4.648 37.948-27.092 33.3-50.131a42.557 42.557 0 0 0-26.26-31.235 115.906 115.906 0 0 0 10.027-54.067c0-43.281-42.103-64.563-62.532-72.329a22.34 22.34 0 0 1 3.917-2.33c6.419-2.906 9.266-10.465 6.36-16.883a12.76 12.76 0 0 0-6.676-6.498c-90.104-38.621-134.827 19.227-143.309 31.95a67.455 67.455 0 0 0-35.106 41.361c-8.533 29.286 3.285 61.44 10.999 77.867-22.405 7.114-34.802 31.044-27.688 53.449a42.564 42.564 0 0 0 32.168 28.846v10.923a42.735 42.735 0 0 0 14.609 32.196l19.959 17.468a147.198 147.198 0 0 0-24.414 16.41l-41.677 10.385c-20.012 4.761-34.709 21.828-36.446 42.325a33.107 33.107 0 0 0-8.832 22.673v29.133a25.653 25.653 0 0 0-17.067 24.141v25.6c.002 18.851 15.284 34.133 34.135 34.133zm136.533-138.522a94.347 94.347 0 0 1-33.067-11.349 92.538 92.538 0 0 1 29.867-16.265 2.153 2.153 0 0 1 1.98.375 2.857 2.857 0 0 1 1.22 2.261zm-45.653.853a110.122 110.122 0 0 0 45.653 16.341v10.394a42.778 42.778 0 0 0-16.759 29.013l-42.974 24.883v-2.697a25.439 25.439 0 0 0-8.448-18.876 94.091 94.091 0 0 1 22.528-59.058zm-14.08 112.069v-13.073a19.566 19.566 0 0 0 6.067-2.15l49.408-28.587a8.532 8.532 0 0 0 4.258-7.39 25.599 25.599 0 0 1 12.8-22.127 8.534 8.534 0 0 0 4.267-7.398v-57.173a19.915 19.915 0 0 0-8.226-16.068 19.063 19.063 0 0 0-17.254-2.807c-42.737 13.973-72.916 52.226-76.561 97.041h-17.117a125.37 125.37 0 0 1 5.052-28.16c20.247-67.731 91.567-106.224 159.298-85.977a127.998 127.998 0 0 1 85.992 86.028 124.572 124.572 0 0 1 5.043 28.109h-17.1c-3.332-44.628-33.251-82.842-75.776-96.785a20.09 20.09 0 0 0-18.091 2.688 19.473 19.473 0 0 0-8.192 16.017v57.088a8.531 8.531 0 0 0 4.267 7.398 25.599 25.599 0 0 1 12.8 22.127 8.531 8.531 0 0 0 4.267 7.39l49.493 28.587a19.34 19.34 0 0 0 5.973 2.116v13.107a25.287 25.287 0 0 0 1.57 8.533h-8.141a19.498 19.498 0 0 0-8.021-9.011l-49.493-28.587a8.534 8.534 0 0 0-8.619.051 25.455 25.455 0 0 1-25.259 0 8.534 8.534 0 0 0-8.619-.051l-49.647 28.629a19.823 19.823 0 0 0-7.885 8.969h-8.124a25.331 25.331 0 0 0 1.57-8.534zm110.933-95.727a109.958 109.958 0 0 0 45.807-16.444 93.617 93.617 0 0 1 22.391 59.153 25.445 25.445 0 0 0-8.465 18.884v2.654l-42.974-24.841a42.741 42.741 0 0 0-16.759-29.013zm0-17.195v-24.892a2.507 2.507 0 0 1 1.084-2.116 3.03 3.03 0 0 1 2.739-.358 93.58 93.58 0 0 1 29.346 15.957 94.109 94.109 0 0 1-33.169 11.409zm26.616 121.455H203.686l35.575-20.48a42.795 42.795 0 0 0 33.425 0zm126.984-42.667v25.6c0 9.426-7.641 17.067-17.067 17.067h-51.2a8.533 8.533 0 0 1-8.533-8.533v-34.133a8.533 8.533 0 0 1 8.533-8.533h25.6a8.533 8.533 0 0 0 8.533-8.533 142.984 142.984 0 0 0-6.067-41.506c-.282-.956-.657-1.869-.964-2.816a13.11 13.11 0 0 1 7.415-6.238 11.835 11.835 0 0 1 11.093 1.852 15.418 15.418 0 0 1 5.589 12.501v36.207c0 4.713 3.821 8.533 8.533 8.533s8.535 3.819 8.535 8.532zm-28.62-85.094c-3.54-.23-7.093.195-10.479 1.254a30.398 30.398 0 0 0-8.926 4.949 143.969 143.969 0 0 0-16.393-26.573l15.002 3.746a31.496 31.496 0 0 1 20.796 16.624zM154.508 91.135a51.087 51.087 0 0 1 28.476-31.923 8.656 8.656 0 0 0 3.652-3.482c1.417-2.56 34.679-60.237 115.388-30.071a36.817 36.817 0 0 0-6.955 7.108 12.8 12.8 0 0 0-2.133 11.46 12.979 12.979 0 0 0 8.277 8.533c13.414 4.369 57.165 21.436 57.165 58.377a127.434 127.434 0 0 1-4.514 37.214 41.552 41.552 0 0 0-17.271-19.499 8.36 8.36 0 0 0-4.873-.853c-45.662 5.7-58.496-.358-79.753-10.402a298.102 298.102 0 0 0-35.959-14.831 40.337 40.337 0 0 0-38.135 3.9 58.873 58.873 0 0 0-20.087 33.084 84.892 84.892 0 0 1-3.278-48.615zm24.909 185.694a25.66 25.66 0 0 1-8.772-19.337V238.89a8.533 8.533 0 0 0-8.533-8.533c-14.053.118-25.541-11.179-25.659-25.232a25.446 25.446 0 0 1 17.126-24.261v15.36a8.533 8.533 0 0 0 17.066 0v-25.6c0-10.487 3.089-39.91 17.203-50.082a24.012 24.012 0 0 1 22.767-1.553 284.044 284.044 0 0 1 34.057 14.089c21.931 10.359 37.888 17.92 86.042 12.288a30.622 30.622 0 0 1 10.598 25.259v25.6a8.533 8.533 0 0 0 17.066 0v-15.36c13.281 4.595 20.323 19.087 15.728 32.368a25.447 25.447 0 0 1-24.261 17.126 8.533 8.533 0 0 0-8.533 8.533v18.603a25.66 25.66 0 0 1-8.772 19.337l-25.899 22.647a141.768 141.768 0 0 0-101.325 0zm-53.222 73.677 14.993-3.746a143.073 143.073 0 0 0-16.384 26.573 30.19 30.19 0 0 0-8.926-4.949 28.8 28.8 0 0 0-10.479-1.254 31.486 31.486 0 0 1 20.796-16.624zM76.778 452.223c0-4.713 3.82-8.533 8.533-8.533s8.533-3.82 8.533-8.533V398.95a15.438 15.438 0 0 1 5.572-12.501 11.853 11.853 0 0 1 11.093-1.852 13.107 13.107 0 0 1 7.415 6.238c-.299.93-.674 1.818-.947 2.756a143.115 143.115 0 0 0-6.067 41.566 8.533 8.533 0 0 0 8.533 8.533h25.6a8.533 8.533 0 0 1 8.533 8.533v34.133a8.533 8.533 0 0 1-8.533 8.533h-51.2c-9.426 0-17.067-7.641-17.067-17.067v-25.599z" fill="#000000" opacity="1" data-original="#000000" class=""></path><circle cx="255.978" cy="435.157" r="8.533" fill="#000000" opacity="1" data-original="#000000" class=""></circle></g></svg>