<svg xmlns="http://www.w3.org/2000/svg" version="1.1" xmlns:xlink="http://www.w3.org/1999/xlink" width="512" height="512" x="0" y="0" viewBox="0 0 24 24" style="enable-background:new 0 0 512 512" xml:space="preserve" class=""><g><path d="M13.857 13h-3.714a1 1 0 0 0-1 1v2.429A2.287 2.287 0 0 0 11 18.67V21a1 1 0 0 0 2 0v-2.329a2.287 2.287 0 0 0 1.857-2.242V14a1 1 0 0 0-1-1zm-2.714 2h1.714v1.429a.27.27 0 0 1-.059.142.958.958 0 0 0-1.596 0 .27.27 0 0 1-.059-.142zm-1.397-3.874a1 1 0 0 1 .719-1.218 6.21 6.21 0 0 1 3.07 0 1 1 0 0 1-.5 1.937 4.215 4.215 0 0 0-2.071 0 1.001 1.001 0 0 1-1.218-.719zm5.784-3.61a.998.998 0 0 1-1.243.672 8.08 8.08 0 0 0-4.574 0 1 1 0 0 1-.57-1.917 10.107 10.107 0 0 1 5.714 0 1 1 0 0 1 .673 1.244zm2.53-3.046a1 1 0 0 1-1.317.516 11.95 11.95 0 0 0-9.486 0 1 1 0 0 1-.8-1.833 13.961 13.961 0 0 1 11.086 0 1 1 0 0 1 .517 1.317z" fill="#000000" opacity="1" data-original="#000000"></path></g></svg>