<svg xmlns="http://www.w3.org/2000/svg" version="1.1" xmlns:xlink="http://www.w3.org/1999/xlink" width="512" height="512" x="0" y="0" viewBox="0 0 97.968 97.968" style="enable-background:new 0 0 512 512" xml:space="preserve" class=""><g><path d="M49.541 38.655c1.617 0 3.158.338 4.559.946.105-2.286.893-4.4 2.157-6.15a13.414 13.414 0 0 0-2.748-.285h-8.906c-.938 0-1.856.098-2.739.282a11.386 11.386 0 0 1 2.165 6.62 11.406 11.406 0 0 1 5.512-1.413z" fill="#000000" opacity="1" data-original="#000000"></path><circle cx="49.054" cy="21.954" r="10.496" fill="#000000" opacity="1" data-original="#000000"></circle><path d="M65.539 50.36a9.67 9.67 0 0 0 9.67-9.67 9.668 9.668 0 0 0-9.67-9.67c-5.292 0-9.583 4.251-9.663 9.524 3.049 1.912 5.187 5.146 5.577 8.9a9.598 9.598 0 0 0 4.086.916zM32.571 31.019c-5.343 0-9.671 4.329-9.671 9.67s4.328 9.669 9.671 9.669a9.621 9.621 0 0 0 5.143-1.492 11.978 11.978 0 0 1 4.499-7.634c.01-.181.027-.36.027-.543 0-5.341-4.33-9.67-9.669-9.67zM71.82 30.813c3.049 1.912 5.187 5.146 5.576 8.901a9.61 9.61 0 0 0 4.086.916 9.669 9.669 0 0 0 9.67-9.67 9.669 9.669 0 0 0-9.67-9.67c-5.291-.001-9.582 4.251-9.662 9.523z" fill="#000000" opacity="1" data-original="#000000"></path><circle cx="49.541" cy="50.673" r="9.671" fill="#000000" opacity="1" data-original="#000000"></circle><path d="M69.643 51.019h-8.144a11.918 11.918 0 0 1-3.679 8.301c6.068 1.806 10.509 7.434 10.509 14.082v3.092c8.04-.297 12.674-2.573 12.979-2.729l.646-.328h.067V63.401c.002-6.828-5.552-12.382-12.378-12.382z" fill="#000000" opacity="1" data-original="#000000"></path><path d="M85.585 41.289h-8.142a11.917 11.917 0 0 1-3.678 8.301c6.068 1.806 10.508 7.433 10.508 14.081v3.092c8.039-.296 12.674-2.572 12.979-2.729l.646-.327h.069V53.671c0-6.827-5.554-12.382-12.382-12.382zM41.256 59.319a11.928 11.928 0 0 1-3.677-8.254c-.301-.022-.6-.047-.908-.047h-8.203c-6.828 0-12.383 5.555-12.383 12.383v10.037l.025.155.691.218c5.227 1.633 9.893 2.383 13.944 2.621v-3.031c.002-6.647 4.441-12.275 10.511-14.082z" fill="#000000" opacity="1" data-original="#000000"></path><path d="M53.643 61.003h-8.206c-6.828 0-12.383 5.557-12.383 12.382v10.037l.026.157.69.216c6.516 2.035 12.177 2.715 16.835 2.715 9.101 0 14.375-2.595 14.701-2.76l.646-.328h.068V73.385c.003-6.827-5.551-12.382-12.377-12.382zM16.486 40.938a9.613 9.613 0 0 0 4.086-.916c.39-3.755 2.527-6.99 5.576-8.902-.08-5.271-4.371-9.523-9.662-9.523a9.67 9.67 0 0 0-9.671 9.671 9.67 9.67 0 0 0 9.671 9.67zM24.202 49.899a11.923 11.923 0 0 1-3.677-8.303h-8.143C5.554 41.597 0 47.152 0 53.979v10.037h.069l.646.327c.306.154 4.939 2.433 12.979 2.728v-3.092c0-6.647 4.439-12.275 10.508-14.08z" fill="#000000" opacity="1" data-original="#000000"></path><path d="M27.796 30.063c1.16-.47 2.93-1.047 4.62-1.047 1.967 0 3.891.506 5.607 1.469a9.726 9.726 0 0 0 1.05-1.22 12.33 12.33 0 0 1-2.52-7.464c0-1.818.406-3.622 1.18-5.261a9.478 9.478 0 0 0-6.399-2.461 9.58 9.58 0 0 0-9.241 7.088c3.248 1.89 5.364 5.194 5.703 8.896zM59.117 28.718a9.568 9.568 0 0 0 1.175 1.505 11.425 11.425 0 0 1 5.092-1.208c1.729 0 3.386.442 4.472.812a11.523 11.523 0 0 1 6.4-9.35 9.568 9.568 0 0 0-9.021-6.402 9.543 9.543 0 0 0-6.945 2.992c.634 1.512.955 3.101.955 4.73a12.229 12.229 0 0 1-2.128 6.921z" fill="#000000" opacity="1" data-original="#000000"></path></g></svg>