<svg xmlns="http://www.w3.org/2000/svg" version="1.1" xmlns:xlink="http://www.w3.org/1999/xlink" width="512" height="512" x="0" y="0" viewBox="0 0 464.1 464.1" style="enable-background:new 0 0 512 512" xml:space="preserve" class=""><g><path d="M108 99.9h45v133h-45zM108 248.9h45v88h-45zM0 248.9h45v88H0zM0 179.9h45v53H0zM324 7.9v206.2c8.4-1.6 17-2.5 25.6-2.5 6.8 0 13.6.6 20.4 1.6V7.9h-46zM349.8 227.6c-63.1 0-114.3 51.2-114.3 114.3s51.2 114.3 114.3 114.3S464.1 405 464.1 341.9c-.1-63.1-51.3-114.2-114.3-114.3zM430 351.7c0 3.9-2.8 7.2-6.6 7.9l-9.5 1.6c-1.3 4.3-3 8.4-5 12.3l5.7 8c2.2 3.2 1.9 7.5-.9 10.3l-13.9 13.9c-2.8 2.7-7.1 3.1-10.3.9l-7.9-5.6c-3.9 2.1-8.1 3.8-12.3 5l-1.6 9.3c-.7 3.8-4 6.6-7.9 6.5h-19.6c-3.9.1-7.2-2.7-7.9-6.5l-1.6-9.2c-4.3-1.3-8.4-3-12.3-5.1l-7.8 5.5c-3.2 2.2-7.5 1.9-10.3-.9l-13.9-13.9c-2.7-2.7-3.1-7.1-.9-10.3l5.5-7.9c-2.1-3.9-3.8-8-5.1-12.3l-9.4-1.6c-3.8-.7-6.7-4-6.6-7.9v-19.6c0-3.9 2.8-7.2 6.6-7.9l9.3-1.6c1.3-4.3 3-8.4 5.1-12.3l-5.5-7.8c-2.2-3.2-1.9-7.5.9-10.3l13.9-13.9c2.7-2.8 7.1-3.1 10.3-.9l7.9 5.5c3.9-2.1 8-3.8 12.3-5.1l1.6-9.4c.6-3.9 4-6.7 7.9-6.8h19.6c3.9 0 7.2 2.9 7.9 6.8l1.6 9.4c4.2 1.3 8.4 3 12.3 5l7.8-5.6c3.2-2.3 7.6-1.9 10.3.8l13.9 13.9c2.7 2.8 3.1 7.1.9 10.3l-5.5 7.9c2.1 3.9 3.8 8 5.1 12.3l9.3 1.6c3.8.7 6.6 4 6.6 7.9v19.8zM216 53.9h45v179h-45z" fill="#000000" opacity="1" data-original="#000000"></path><path d="M406.1 337.5c-3.1-.4-5.7-2.9-6.3-6.1-1.3-6.1-3.7-11.9-7-17.2-1.7-2.7-1.6-6.2.2-8.8l4.6-6.5-4.4-4.4-6.5 4.7c-2.7 1.9-6.2 2-9 .2-5.2-3.3-11-5.7-17.1-7-3.2-.7-5.7-3.3-6.2-6.5l-1.3-7.9h-6l-1.3 7.9c-.5 3.3-3 5.9-6.2 6.6-6.1 1.3-11.9 3.7-17.2 7-2.7 1.7-6.2 1.6-8.8-.2l-6.5-4.6-4.4 4.4 4.6 6.5c1.9 2.7 1.9 6.2.2 8.9-3.3 5.2-5.7 11-7 17.1-.7 3.2-3.2 5.7-6.5 6.2l-7.8 1.3v6l7.8 1.3c3.2.5 5.8 3 6.5 6.2 1.3 6.1 3.7 11.9 7 17.2 1.7 2.7 1.6 6.2-.2 8.8l-4.6 6.5 4.4 4.4 6.5-4.6c2.7-1.9 6.2-2 8.9-.2 5.2 3.3 11 5.7 17.1 6.9 3.2.6 5.7 3.2 6.2 6.4l1.3 7.7h6l1.3-7.7c.6-3.2 3-5.7 6.2-6.3 6.1-1.3 11.9-3.7 17.2-7 2.7-1.7 6.2-1.6 8.8.2l6.5 4.6 4.4-4.4-4.8-6.7c-1.9-2.7-2-6.2-.2-9 3.3-5.2 5.7-11 7-17.1.7-3.2 3.2-5.7 6.5-6.2l7.9-1.3v-6l-7.8-1.3zm-56.1 36c-17.4 0-31.5-14.1-31.5-31.5s14.1-31.5 31.5-31.5 31.5 14.1 31.5 31.5-14.1 31.5-31.5 31.5zM216 248.9v88h3.6c1.4-33.2 15.3-64.6 38.8-88H216z" fill="#000000" opacity="1" data-original="#000000"></path><circle cx="350" cy="342" r="15.5" fill="#000000" opacity="1" data-original="#000000"></circle></g></svg>