<svg xmlns="http://www.w3.org/2000/svg" version="1.1" xmlns:xlink="http://www.w3.org/1999/xlink" width="512" height="512" x="0" y="0" viewBox="0 0 512 512" style="enable-background:new 0 0 512 512" xml:space="preserve" class=""><g><path fill-rule="evenodd" d="M259.9 251.06v-87.04c0-2.76-2.26-5-5.03-5s-4.98 2.24-4.98 5v87.03c-7.27 2.16-12.59 8.92-12.59 16.91 0 9.72 7.86 17.63 17.56 17.63 3.07 0 5.95-.78 8.46-2.15l45.5 45.5c.99.98 2.26 1.47 3.53 1.47s2.54-.49 3.53-1.47a4.95 4.95 0 0 0 0-7.07l-45.5-45.5a17.53 17.53 0 0 0 2.13-8.41c0-7.98-5.29-14.73-12.59-16.9zm91.99-80.12a4.95 4.95 0 0 1 0 7.07l-5.69 5.7c-.99.97-2.26 1.46-3.53 1.46s-2.54-.49-3.53-1.46a4.95 4.95 0 0 1 0-7.07l5.69-5.7c1.97-1.95 5.13-1.95 7.05 0zM170.64 352.19a4.962 4.962 0 0 1 0 7.08l-5.69 5.7c-.99.97-2.26 1.46-3.53 1.46s-2.59-.49-3.53-1.46a4.95 4.95 0 0 1 0-7.07l5.69-5.71c1.93-1.95 5.13-1.95 7.05 0zm203.4-84.24c0-2.76 2.21-5 4.98-5h8.09c2.73 0 4.98 2.24 4.98 5s-2.26 5-4.98 5h-8.09c-2.77 0-4.98-2.24-4.98-5zm-238.29 0c0 2.76-2.26 5-4.98 5h-8.09c-2.73 0-4.98-2.24-4.98-5s2.26-5 4.98-5h8.09c2.73 0 4.98 2.24 4.98 5zm216.14 89.95a4.95 4.95 0 0 1 0 7.07c-.94.97-2.26 1.46-3.53 1.46s-2.54-.49-3.53-1.46l-5.69-5.7a4.962 4.962 0 0 1 0-7.08c1.93-1.95 5.13-1.95 7.05 0l5.69 5.71zM170.64 176.64a4.95 4.95 0 0 1 0 7.07c-.99.97-2.26 1.46-3.53 1.46s-2.59-.49-3.53-1.46l-5.69-5.7a4.95 4.95 0 0 1 0-7.07c1.93-1.95 5.08-1.95 7.05 0l5.69 5.7zm79.24-32.83v-8.07c0-2.76 2.26-4.99 4.98-4.99s5.03 2.23 5.03 4.99v8.07c0 2.76-2.26 5-5.03 5s-4.98-2.24-4.98-5zm10.02 248.28v8.06c0 2.76-2.26 5-5.03 5s-4.98-2.24-4.98-5v-8.06c0-2.76 2.26-5 4.98-5s5.03 2.24 5.03 5zm153.92-248.3a202.648 202.648 0 0 0-25.87-27.33l10.39-10.38 26.62 26.58-11.15 11.14zm-8.14 342.1c.38 1.25.19 2.56-.56 3.6s-1.98 1.63-3.24 1.63h-17.59c-3.39 0-6.11-1.38-8.09-4.1l-28.97-39.73a202.53 202.53 0 0 0 37.72-25.27l20.74 63.87zm-272.1 1.13c-1.98 2.72-4.7 4.1-8.09 4.1H107.9c-1.27 0-2.49-.59-3.24-1.63s-.94-2.35-.56-3.6l20.69-63.87a203.659 203.659 0 0 0 37.76 25.27zM84.81 132.65l26.62-26.58 10.35 10.39a205.463 205.463 0 0 0-25.82 27.33zM236.1 53.74h37.58v13.35c-6.16-.57-12.46-.88-18.81-.88s-12.6.31-18.76.88V53.74zm-21.12-15v-12.6c0-2.76 2.26-5 4.98-5h69.84c2.73 0 4.98 2.24 4.98 5v12.6c0 2.76-2.26 5-4.98 5h-69.84c-2.73 0-4.98-2.24-4.98-5zm229.83 113.8-12.79-12.81-12.18 12.18c23.18 32.84 36.78 72.88 36.78 116.04 0 57.8-24.41 109.99-63.49 146.81l22.06 68.06c1.41 4.32.66 8.9-1.98 12.56-2.68 3.66-6.82 5.75-11.33 5.75h-17.59c-6.58 0-12.32-2.91-16.18-8.21l-30-41.18c-25.4 11.53-53.56 17.96-83.24 17.96s-57.8-6.43-83.19-17.96l-30 41.18c-3.86 5.3-9.59 8.21-16.18 8.21h-17.59c-4.51 0-8.65-2.09-11.33-5.75-2.63-3.66-3.39-8.24-1.98-12.56l22.06-68.06c-39.08-36.82-63.53-89.01-63.53-146.81 0-43.16 13.64-83.2 36.82-116.04l-12.18-12.18-12.79 12.81c-2.87 2.85-6.63 4.41-10.63 4.41h-.24c-4.04-.07-7.85-1.74-10.68-4.74-11.05-11.72-16.98-27.1-16.74-43.32.19-16.25 6.63-31.49 18.06-42.91s26.66-17.84 42.89-18.06c16.27-.23 31.6 5.72 43.31 16.75 3.01 2.82 4.7 6.62 4.75 10.69.05 4.08-1.5 7.93-4.42 10.84l-12.79 12.81 11 11.01c27.32-21.75 60.43-36.56 96.6-41.76V53.73h-6.11c-8.28 0-15-6.72-15-15v-12.6c0-8.27 6.72-15 15-15h69.84c8.23 0 15 6.73 15 15v12.6c0 8.27-6.77 15-15 15h-6.11v14.53c36.16 5.19 69.23 20.01 96.6 41.76l11-11.01-12.79-12.81c-2.92-2.9-4.47-6.75-4.42-10.84.05-4.08 1.74-7.88 4.75-10.69 11.71-11.03 27.09-16.97 43.31-16.75 16.22.23 31.46 6.65 42.89 18.06 11.43 11.42 17.82 26.66 18.06 42.91.24 16.22-5.69 31.6-16.74 43.32-2.82 2.99-6.63 4.67-10.68 4.74h-.23c-4 0-7.76-1.56-10.63-4.41zM254.86 415.07c-81.12 0-147.1-66-147.1-147.12s65.98-147.11 147.1-147.11 147.15 65.99 147.15 147.12-66.03 147.12-147.15 147.12z" fill="#000000" opacity="1" data-original="#000000"></path></g></svg>