<svg xmlns="http://www.w3.org/2000/svg" version="1.1" xmlns:xlink="http://www.w3.org/1999/xlink" width="512" height="512" x="0" y="0" viewBox="0 0 192 192" style="enable-background:new 0 0 512 512" xml:space="preserve" class=""><g><path d="M16 176V40H0v144a8 8 0 0 0 8 8h184v-16z" fill="#000000" opacity="1" data-original="#000000" class=""></path><path d="M72 112a8 8 0 0 0-8-8H40a8 8 0 0 0-8 8v56h40zM128 80a8 8 0 0 0-8-8H96a8 8 0 0 0-8 8v88h40zM184 48a8 8 0 0 0-8-8h-24a8 8 0 0 0-8 8v120h40z" fill="#000000" opacity="1" data-original="#000000" class=""></path></g></svg>