<svg xmlns="http://www.w3.org/2000/svg" version="1.1" xmlns:xlink="http://www.w3.org/1999/xlink" width="512" height="512" x="0" y="0" viewBox="0 0 512 512" style="enable-background:new 0 0 512 512" xml:space="preserve" class=""><g><path d="m466.154 386.618-8.912 20.581 12.624 18.537c.653.958.691 2.134.101 3.132s-1.637 1.532-2.792 1.423l-22.328-2.116-13.729 17.735a2.868 2.868 0 0 1-2.948 1.064 2.865 2.865 0 0 1-2.216-2.216l-4.887-21.889-21.109-7.576a2.864 2.864 0 0 1-1.922-2.475 2.863 2.863 0 0 1 1.423-2.792l19.307-11.412.682-22.417c.035-1.159.696-2.132 1.76-2.593s2.226-.277 3.095.49l16.82 14.836 21.531-6.278a2.866 2.866 0 0 1 3.01.872c.767.87.951 2.031.49 3.095zm-84.19 31.562a2.865 2.865 0 0 0-2.759-1.486l-22.37 1.612-13.325-18.04a2.868 2.868 0 0 0-2.923-1.13 2.868 2.868 0 0 0-2.266 2.165l-5.379 21.773-21.275 7.098a2.867 2.867 0 0 0-1.978 2.431 2.867 2.867 0 0 0 1.359 2.824l19.045 11.845.177 22.427a2.865 2.865 0 0 0 1.701 2.632 2.865 2.865 0 0 0 3.105-.42l17.15-14.452 21.384 6.762c1.106.35 2.242.048 3.029-.804s.997-2.009.56-3.083l-8.445-20.777 13.04-18.248a2.865 2.865 0 0 0 .171-3.129zm125.158 11.057a6.997 6.997 0 0 0-9.52-2.723c-73.52 40.84-157.061 62.429-241.6 62.429S87.913 467.354 14.398 426.514c-3.379-1.88-7.639-.66-9.52 2.723-1.875 3.369-.655 7.64 2.719 9.51 75.593 41.997 161.486 64.198 248.405 64.198s172.808-22.201 248.401-64.198c3.379-1.87 4.589-6.141 2.719-9.51zm-466.628-92.52c64.569 40.3 139.087 61.6 215.509 61.6s150.94-21.3 215.499-61.6a6.99 6.99 0 0 0 2.227-9.64c-2.039-3.283-6.358-4.28-9.635-2.232-62.342 38.898-134.301 59.469-208.091 59.469S110.25 363.742 47.908 324.845a6.999 6.999 0 1 0-7.413 11.872zm252.355 97.802a2.865 2.865 0 0 0-2.415-1.997l-22.252-2.797-9.537-20.299c-.493-1.049-1.486-1.68-2.645-1.68s-2.152.63-2.646 1.68l-9.536 20.299-22.253 2.797c-1.151.145-2.057.894-2.415 1.997s-.065 2.242.78 3.035l16.358 15.343-4.216 22.027c-.218 1.139.214 2.233 1.152 2.914s2.112.755 3.128.196l19.647-10.816 19.647 10.816c1.016.559 2.19.486 3.128-.196s1.371-1.775 1.153-2.914l-4.216-22.028 16.358-15.343a2.864 2.864 0 0 0 .78-3.035zm-250.834-5.64a2.868 2.868 0 0 0 2.792 1.423l22.328-2.116 13.729 17.735a2.868 2.868 0 0 0 2.948 1.064 2.867 2.867 0 0 0 2.216-2.216l4.887-21.888 21.109-7.577c1.092-.392 1.812-1.32 1.922-2.475s-.424-2.203-1.423-2.792l-19.307-11.412-.682-22.417c-.035-1.159-.696-2.132-1.76-2.593s-2.226-.277-3.095.49l-16.82 14.836-21.531-6.279a2.869 2.869 0 0 0-3.01.872 2.866 2.866 0 0 0-.49 3.095l8.912 20.581-12.625 18.537a2.867 2.867 0 0 0-.101 3.132zm93.328 34.548a2.866 2.866 0 0 0 3.029.804l21.384-6.762 17.15 14.452a2.867 2.867 0 0 0 3.106.42 2.865 2.865 0 0 0 1.7-2.632l.177-22.427 19.044-11.845c.985-.613 1.495-1.672 1.359-2.824s-.878-2.064-1.978-2.431l-21.275-7.098-5.38-21.773a2.865 2.865 0 0 0-2.266-2.165 2.866 2.866 0 0 0-2.923 1.13l-13.325 18.04-22.37-1.612a2.866 2.866 0 0 0-2.759 1.486 2.867 2.867 0 0 0 .171 3.129l13.04 18.247-8.446 20.777a2.864 2.864 0 0 0 .56 3.083zM308.47 232.114c-1.271 23.073-.849 44.52.081 66.561.462 10.933 9.455 19.555 20.398 19.555h3.38v-53.41a7 7 0 1 1 14 0v53.41h81.692v-53.41a7 7 0 1 1 14 0v53.41h3.38c10.942 0 19.936-8.622 20.398-19.555.93-22.041 1.352-43.487.081-66.561-1.004-13.06-3.926-17.968-12.125-22.775-6.285-3.686-17.273-6.596-27.305-9.162l-16.474-4.052c-6.697 4.256-14.417 6.747-22.801 6.747s-16.104-2.491-22.801-6.747l-16.474 4.052c-10.031 2.566-21.02 5.476-27.305 9.162-8.199 4.807-11.121 9.715-12.125 22.775zM255.998 84.559c9.506.01 19.047-4.98 26.077-15.164 15.314-22.187 10.606-60.34-26.077-60.34s-41.391 38.153-26.076 60.34c7.03 10.184 16.571 15.175 26.076 15.164zm131.176 104.314c9.506.01 19.047-4.98 26.076-15.164 15.314-22.187 10.606-60.34-26.076-60.34s-41.391 38.153-26.076 60.34c7.03 10.184 16.571 15.175 26.076 15.164zm-262.351 0c9.506.01 19.047-4.98 26.076-15.164 15.314-22.187 10.606-60.34-26.076-60.34s-41.391 38.153-26.076 60.34c7.03 10.184 16.571 15.175 26.076 15.164zM66.598 318.23h3.38v-53.41a7 7 0 1 1 14 0v53.41h81.692v-53.41a7 7 0 1 1 14 0v53.41h3.38c10.943 0 19.936-8.622 20.398-19.555.93-22.041 1.352-43.487.081-66.561-1.004-13.06-3.926-17.968-12.125-22.775-6.285-3.686-17.273-6.596-27.305-9.162l-16.474-4.052c-6.697 4.256-14.417 6.747-22.801 6.747s-16.104-2.491-22.801-6.747l-16.474 4.052c-10.031 2.566-21.019 5.476-27.305 9.162-8.199 4.807-11.121 9.715-12.125 22.775-1.271 23.073-.849 44.52.081 66.561.461 10.933 9.455 19.555 20.398 19.555zm131.886-120.968a52.377 52.377 0 0 1 2.669 1.674v-38.43a7 7 0 1 1 14 0v53.41h81.692v-53.41a7 7 0 1 1 14 0v38.43a51.298 51.298 0 0 1 2.67-1.675c6.054-3.55 13.837-6.083 21.32-8.142.775-20.216 1.039-40.078-.131-61.319-1.004-13.06-3.926-17.968-12.125-22.775-6.285-3.686-17.273-6.596-27.305-9.161L278.8 91.812c-6.697 4.256-14.417 6.747-22.801 6.747s-16.104-2.491-22.801-6.747l-16.474 4.052c-10.031 2.566-21.019 5.476-27.305 9.161-8.199 4.807-11.121 9.715-12.125 22.775-1.17 21.241-.906 41.102-.13 61.319 7.483 2.059 15.266 4.593 21.321 8.143z" fill="#000000" opacity="1" data-original="#000000" class=""></path></g></svg>