<svg xmlns="http://www.w3.org/2000/svg" version="1.1" xmlns:xlink="http://www.w3.org/1999/xlink" width="512" height="512" x="0" y="0" viewBox="0 0 477.855 477.855" style="enable-background:new 0 0 512 512" xml:space="preserve" class=""><g><path d="M269.668 236.13c14.661-7.331 71.811-7.9 88.977-7.9 21.957 0 43.756.787 63.039 2.274l.137.011c13.619 1.176 20.783 7.577 22.654 9.511l.447.484 22.121 24.973V94.391H157.666v38.4h-3.271v156.78l71.049-18.211c10.28-9.325 33.501-29.87 44.224-35.23zM150.315 282.305V132.524H62.838L8.201 203.14v44.371L0 256.076v26.246l31.957-.018h11.232a40.054 40.054 0 0 0-.799 4.295H6.354l.402 15.651h36.66c4.6 17.149 20.263 29.815 38.832 29.815 18.578 0 34.248-12.666 38.851-29.815h19.41l3.593-10.044 5.938-1.522V286.6h-27.917a39.806 39.806 0 0 0-.798-4.295H150.315zM82.25 311.109c-10.633 0-19.283-8.647-19.283-19.277 0-10.629 8.65-19.275 19.283-19.275 10.633 0 19.283 8.646 19.283 19.275s-8.65 19.277-19.283 19.277zM33.588 200.452l36.667-51.167h63.666v51.167H33.588z" fill="#000000" opacity="1" data-original="#000000"></path><path d="m477.855 354.266-.02-35.643-8.125-25.486-38.016-42.917s-4.074-4.212-13.164-4.997c-60.613-4.676-133.256-1.361-144.152 4.087-10.896 5.449-43.59 35.416-43.59 35.416l-77.245 19.8-7.212 20.157-6.747 5.913 4.619 24.461h5.473v8.21h27.628c4.432 11.8 15.814 20.198 29.162 20.198 16.277 0 29.632-12.49 31.019-28.407l158.617.002c1.389 15.916 14.74 28.405 31.02 28.405 13.348 0 24.729-8.398 29.162-20.198h16.676v-8.207h4.873c0-.224-.008-.446-.02-.671l.042-.123zm-271.392 9.545c-6.341 0-11.492-5.156-11.492-11.505 0-6.325 5.151-11.479 11.492-11.479 6.342 0 11.498 5.154 11.498 11.479 0 6.348-5.156 11.505-11.498 11.505zm133.969-77.272h-76.521l21.707-27.135s35.265-2.961 54.813-3.258v30.393zm19.673 0v-30.392c30.797-.678 53.592 2.272 53.592 2.272l22.93 28.119h-76.522zm67.01 77.272c-6.34 0-11.49-5.156-11.49-11.505 0-6.325 5.15-11.479 11.49-11.479 6.344 0 11.498 5.154 11.498 11.479.002 6.348-5.154 11.505-11.498 11.505z" fill="#000000" opacity="1" data-original="#000000"></path></g></svg>