<svg xmlns="http://www.w3.org/2000/svg" version="1.1" xmlns:xlink="http://www.w3.org/1999/xlink" width="512" height="512" x="0" y="0" viewBox="0 0 48 48" style="enable-background:new 0 0 512 512" xml:space="preserve" class=""><g><g data-name="Pickup Truck"><path d="M34 24h12.58l-2.5-6H34z" fill="#000000" opacity="1" data-original="#000000"></path><path d="M46 28h1v-2H33a1 1 0 0 1-1-1v-8a1 1 0 0 1 1-1h10.25L42 13H29v22h3a6 6 0 0 1 12 0h3v-5h-1a1 1 0 0 1 0-2zM1 30h2a1 1 0 0 1 0 2H1v3h4a6 6 0 0 1 12 0h10v-3h-7a1 1 0 0 1 0-2h7v-7H1z" fill="#000000" opacity="1" data-original="#000000"></path><path d="M38 31a4 4 0 1 0 4 4 4 4 0 0 0-4-4zm0 5a1 1 0 0 1 0-2 1 1 0 0 1 0 2zM11 31a4 4 0 1 0 4 4 4 4 0 0 0-4-4zm0 5a1 1 0 0 1 0-2 1 1 0 0 1 0 2zM34 9H23v12h4V11h7a1 1 0 0 0 0-2z" fill="#000000" opacity="1" data-original="#000000"></path></g></g></svg>